<svg width="24" height="24" viewBox="0 0 24 24" fill="none" xmlns="http://www.w3.org/2000/svg">
<g clip-path="url(#clip0_19_15819)">
<path d="M11 17.035C11 17.1266 10.9749 17.2165 10.9274 17.2948C10.8798 17.3731 10.8116 17.4368 10.7303 17.4791C10.649 17.5213 10.5577 17.5403 10.4662 17.5341C10.3748 17.528 10.2869 17.4968 10.212 17.444L3.07899 12.408C3.01377 12.3618 2.96058 12.3006 2.92388 12.2297C2.88717 12.1587 2.86801 12.0799 2.86801 12C2.86801 11.9201 2.88717 11.8413 2.92388 11.7703C2.96058 11.6993 3.01377 11.6382 3.07899 11.592L10.212 6.556C10.2869 6.50322 10.3748 6.47204 10.4662 6.46586C10.5577 6.45968 10.649 6.47873 10.7303 6.52094C10.8116 6.56315 10.8798 6.62688 10.9274 6.7052C10.9749 6.78351 11 6.87338 11 6.965V17.035ZM12.079 12.408C12.0138 12.3618 11.9606 12.3006 11.9239 12.2297C11.8872 12.1587 11.868 12.0799 11.868 12C11.868 11.9201 11.8872 11.8413 11.9239 11.7703C11.9606 11.6993 12.0138 11.6382 12.079 11.592L19.212 6.556C19.2869 6.50322 19.3748 6.47204 19.4662 6.46586C19.5577 6.45968 19.649 6.47873 19.7303 6.52094C19.8116 6.56315 19.8798 6.62688 19.9274 6.7052C19.9749 6.78351 20 6.87338 20 6.965V17.035C20 17.1266 19.9749 17.2165 19.9274 17.2948C19.8798 17.3731 19.8116 17.4368 19.7303 17.4791C19.649 17.5213 19.5577 17.5403 19.4662 17.5341C19.3748 17.528 19.2869 17.4968 19.212 17.444L12.079 12.408Z" fill="white"/>
</g>
<defs>
<clipPath id="clip0_19_15819">
<rect width="24" height="24" fill="white"/>
</clipPath>
</defs>
</svg>
