<svg width="24" height="24" viewBox="0 0 24 24" fill="none" xmlns="http://www.w3.org/2000/svg">
<g clip-path="url(#clip0_19_10669)">
<path d="M12 18.0001C12.714 18.0001 13.37 18.2501 13.886 18.6661L12 21.0001L10.114 18.6661C10.6475 18.2339 11.3135 17.9987 12 18.0001ZM2.80803 1.39307L20.485 19.0711L19.071 20.4851L15.389 16.8051L15.142 17.1111C14.2534 16.3909 13.1439 15.9986 12 16.0001C10.8566 15.9985 9.74756 16.3905 8.85903 17.1101L6.97403 14.7761C8.28808 13.7115 9.90692 13.093 11.596 13.0101L9.82303 11.2381C8.31956 11.5725 6.91409 12.2509 5.71703 13.2201L3.83003 10.8871C4.90783 10.0143 6.11851 9.31982 7.41603 8.83007L5.88503 7.30007C4.69835 7.83078 3.58569 8.5135 2.57503 9.33107L0.689026 6.99707C1.60403 6.25707 2.59203 5.60607 3.64103 5.05507L1.39303 2.80807L2.80803 1.39307ZM16.084 11.8701L12.216 8.00307L12 8.00007C15.095 8.00007 17.937 9.08107 20.17 10.8871L18.284 13.2211C17.6122 12.6772 16.8727 12.2228 16.084 11.8691V11.8701ZM12 3.00007C16.285 3.00007 20.22 4.49707 23.31 6.99707L21.426 9.33007C18.7598 7.17038 15.4312 5.99448 12 6.00007C11.428 6.00007 10.864 6.03207 10.31 6.09407L7.72303 3.51107C9.09403 3.17707 10.527 3.00007 12 3.00007Z" fill="white"/>
</g>
<defs>
<clipPath id="clip0_19_10669">
<rect width="24" height="24" fill="white"/>
</clipPath>
</defs>
</svg>
